<?xml version="1.0" encoding="UTF-8"?>
<svg xmlns="http://www.w3.org/2000/svg" xmlns:xlink="http://www.w3.org/1999/xlink" width="660" height="480">
<rect width="660" height="480" fill="#fff"/>
<rect width="660" height="75" y="45" fill="#000"/>
<rect width="660" height="75" y="360" fill="#000"/>
<g fill="#000">
<path d="M230.694,172.92A99.306,99.306 0 1,0 429.306,172.92H419.851A89.851,89.851 0 1,1 240.149,172.92z"/>
<path d="M259.256,173.35A70.744,70.744 0 1,0 400.744,173.35H391.223A61.223,61.223 0 1,1 268.777,173.35z"/>
<path d="M288.157,172.92A41.843,41.843 0 1,0 371.843,172.92H362.388A32.388,32.388 0 1,1 297.612,172.92z"/>
<path d="M278.562,317.879V324.35H381.438V317.879L334.727,307.466V165.639H325.273V307.466z"/>
<g id="c3">
<path id="c" d="M223.357,161.017H247.489L240.151,170.934H230.696z"/>
<use xlink:href="#c" x="28.731"/>
<use xlink:href="#c" x="57.461"/>
</g>
<use xlink:href="#c" x="94.577" y="-7.261"/>
<use xlink:href="#c3" x="131.693"/>
</g>
</svg>