<?xml version="1.0" encoding="UTF-8" standalone="no"?>
<svg
   xmlns:dc="http://purl.org/dc/elements/1.1/"
   xmlns:cc="http://creativecommons.org/ns#"
   xmlns:rdf="http://www.w3.org/1999/02/22-rdf-syntax-ns#"
   xmlns:svg="http://www.w3.org/2000/svg"
   xmlns="http://www.w3.org/2000/svg"
   xmlns:sodipodi="http://sodipodi.sourceforge.net/DTD/sodipodi-0.dtd"
   xmlns:inkscape="http://www.inkscape.org/namespaces/inkscape"
   width="324pt"
   height="216pt"
   viewBox="0 0 324 216"
   version="1.1"
   id="svg2"
   inkscape:version="0.48.4 r9939"
   sodipodi:docname="Flag_of_the_Yoruba_people.svg">
  <metadata
     id="metadata36">
    <rdf:RDF>
      <cc:Work
         rdf:about="">
        <dc:format>image/svg+xml</dc:format>
        <dc:type
           rdf:resource="http://purl.org/dc/dcmitype/StillImage" />
      </cc:Work>
    </rdf:RDF>
  </metadata>
  <defs
     id="defs34" />
  <sodipodi:namedview
     pagecolor="#ffffff"
     bordercolor="#666666"
     borderopacity="1"
     objecttolerance="10"
     gridtolerance="10"
     guidetolerance="10"
     inkscape:pageopacity="0"
     inkscape:pageshadow="2"
     inkscape:window-width="640"
     inkscape:window-height="480"
     id="namedview32"
     showgrid="false"
     inkscape:zoom="0.85679012"
     inkscape:cx="252.06837"
     inkscape:cy="135"
     inkscape:window-x="0"
     inkscape:window-y="0"
     inkscape:window-maximized="0"
     inkscape:current-layer="svg2" />
  <path
     fill="#0000cc"
     d=" M 0.00 0.00 L 324.00 0.00 L 324.00 216.00 L 0.00 216.00 L 0.00 0.00 Z"
     id="path4" />
  <g
     id="g3013">
    <path
       fill="#f4f4f4"
       id="path6"
       d=" M 101.41 28.41 C 123.79 26.01 147.03 33.27 164.23 47.78 C 170.50 53.89 177.01 59.94 181.32 67.67 C 188.86 79.39 192.75 93.18 193.98 106.97 C 195.13 130.74 186.35 155.40 168.75 171.74 C 155.50 185.74 136.71 193.59 117.76 195.74 C 95.62 197.73 72.77 190.59 55.78 176.22 C 49.50 170.12 42.99 164.06 38.68 156.33 C 33.46 148.34 30.15 139.26 27.99 130.01 C 22.11 104.93 29.21 77.40 45.78 57.77 C 51.73 51.68 57.58 45.34 65.04 41.05 C 75.92 33.99 88.59 29.94 101.41 28.41 Z" />
  </g>
  <path
     fill="#000000"
     d=" M 104.79 37.79 C 106.94 35.97 108.84 33.91 110.62 31.72 C 115.17 38.74 119.45 46.21 120.88 54.55 C 121.65 59.44 122.17 64.35 122.92 69.24 C 123.56 73.78 122.17 78.19 121.96 82.69 C 121.96 87.57 122.30 92.49 121.41 97.32 C 120.59 101.37 121.40 105.54 120.60 109.59 C 119.60 114.81 118.93 120.09 117.84 125.30 C 114.94 129.24 114.62 134.11 114.97 138.84 C 114.97 139.32 114.98 140.29 114.98 140.77 C 115.19 145.09 114.09 149.81 116.35 153.76 C 117.25 155.50 118.06 157.30 118.63 159.19 C 116.42 159.05 114.22 159.01 112.02 158.98 C 112.02 164.14 112.05 169.31 111.99 174.47 C 116.27 176.18 119.32 181.07 117.75 185.63 C 115.89 189.70 111.95 192.24 109.00 195.47 C 105.53 191.43 99.23 188.21 99.93 182.07 C 100.08 178.84 102.76 176.62 104.96 174.60 C 105.00 169.44 104.94 164.27 105.01 159.11 C 104.57 159.09 103.69 159.06 103.24 159.04 C 101.75 158.97 100.26 158.89 98.78 158.80 C 102.40 154.53 102.37 148.89 101.90 143.60 C 101.89 143.31 101.86 142.73 101.85 142.43 C 101.49 137.11 103.30 131.44 101.11 126.37 C 97.70 117.23 97.28 107.40 96.67 97.78 C 95.71 92.49 95.97 87.10 95.99 81.75 C 96.03 78.91 95.99 76.07 96.00 73.23 C 96.09 68.22 96.95 63.28 97.66 58.33 C 98.48 51.09 100.84 43.94 104.79 37.79 Z"
     id="path8" />
  <path
     d=" M 110.39 32.93 C 115.22 40.45 119.49 48.66 120.28 57.71 C 120.99 64.81 123.21 72.05 121.25 79.14 C 120.35 85.47 121.90 91.99 120.24 98.24 C 119.62 101.97 120.43 105.82 119.63 109.54 C 118.49 114.84 118.13 120.29 116.66 125.52 C 115.75 127.02 113.81 128.08 114.01 130.05 C 114.01 137.63 113.92 145.22 114.05 152.80 C 115.34 154.60 116.85 156.23 118.19 157.99 C 115.79 158.01 113.40 157.99 111.00 158.00 C 111.00 163.59 110.98 169.18 111.02 174.77 C 114.18 176.33 117.42 179.10 117.07 183.00 C 117.34 188.28 111.68 190.63 109.00 194.39 C 106.63 191.29 102.91 189.26 101.26 185.65 C 99.79 181.46 102.26 177.09 106.07 175.21 C 105.94 169.48 106.02 163.74 106.00 158.01 C 103.92 158.00 101.85 158.00 99.77 158.00 C 100.91 156.37 103.21 155.21 102.98 152.96 C 103.10 146.64 102.91 140.32 103.01 134.00 C 102.94 132.24 103.64 130.61 104.14 128.97 C 100.11 123.59 99.25 116.67 98.71 110.15 C 97.50 105.48 98.48 100.56 97.11 95.91 C 96.88 87.28 97.01 78.64 97.04 70.01 C 98.44 60.46 98.89 50.40 103.59 41.72 C 104.92 38.06 108.85 36.49 110.39 32.93 Z"
     id="path10"
     fill="#ffff00" />
  <path
     fill="#00cc00"
     d=" M 66.32 49.35 C 69.09 48.39 71.94 47.43 74.87 47.17 C 80.56 47.65 86.26 49.31 90.85 52.81 C 93.70 53.83 95.76 56.07 97.66 58.33 C 96.95 63.28 96.09 68.22 96.00 73.23 C 92.95 70.88 90.81 67.33 87.19 65.79 C 84.22 64.37 82.01 61.35 78.54 61.08 C 76.02 60.24 73.47 61.06 70.94 61.32 C 67.61 61.65 66.17 65.75 62.73 65.70 C 62.33 69.08 59.05 71.19 58.52 74.59 C 56.83 78.07 59.26 81.42 60.38 84.63 C 63.56 91.57 70.03 96.08 75.06 101.59 C 72.89 104.98 69.89 107.69 66.99 110.43 C 61.47 104.82 55.46 99.62 50.64 93.37 C 42.69 84.75 43.22 69.82 51.72 61.72 C 56.33 57.33 60.49 52.19 66.32 49.35 Z"
     id="path12" />
  <path
     fill="#00cc00"
     d=" M 129.77 49.22 C 134.41 47.57 139.40 46.12 144.32 47.49 C 150.82 49.69 156.69 53.62 161.28 58.72 C 166.41 63.30 170.06 69.72 170.52 76.65 C 170.92 82.62 168.48 88.25 165.13 93.06 C 163.32 96.76 160.09 99.38 157.26 102.26 C 154.74 104.75 152.38 107.45 149.41 109.43 C 146.22 111.59 144.35 115.06 142.02 118.02 C 139.96 120.93 136.99 123.04 134.99 125.99 C 130.83 132.27 123.02 135.12 119.68 142.08 C 118.07 141.05 116.50 139.98 114.97 138.84 C 114.62 134.11 114.94 129.24 117.84 125.30 C 120.59 123.28 123.61 121.46 125.59 118.59 C 129.81 112.52 136.36 108.66 140.65 102.65 C 144.16 97.49 149.76 94.06 152.60 88.43 C 155.67 84.78 157.36 80.03 156.92 75.25 C 155.94 70.90 153.65 66.66 149.93 64.08 C 144.75 59.87 136.54 58.90 131.04 63.03 C 128.21 64.93 125.53 67.04 122.92 69.24 C 122.17 64.35 121.65 59.44 120.88 54.55 C 123.88 52.84 126.31 50.05 129.77 49.22 Z"
     id="path14" />
  <path
     d=" M 86.41 90.43 C 90.04 88.04 92.69 84.53 95.99 81.75 C 95.97 87.10 95.71 92.49 96.67 97.78 C 94.72 99.44 92.52 100.86 91.00 102.97 C 87.15 108.10 81.67 111.72 78.00 117.02 C 73.09 123.70 65.25 128.04 61.82 135.81 C 59.60 140.14 56.64 145.25 58.77 150.19 C 61.81 158.94 72.59 165.10 81.53 161.65 C 86.19 158.75 90.56 155.31 94.28 151.26 C 96.79 148.68 98.46 145.15 101.90 143.60 C 102.37 148.89 102.40 154.53 98.78 158.80 C 100.26 158.89 101.75 158.97 103.24 159.04 C 98.19 164.74 92.63 170.12 86.01 173.96 C 82.37 175.08 78.62 176.02 74.81 176.36 C 71.91 175.94 69.06 175.08 66.25 174.25 C 60.07 170.06 54.08 165.48 49.39 159.60 C 47.11 156.34 45.95 152.51 44.69 148.79 C 43.89 143.30 45.37 137.62 48.00 132.80 C 51.06 129.22 53.21 124.91 56.72 121.72 C 61.14 117.46 65.19 112.78 70.23 109.23 C 74.26 106.40 75.65 101.44 79.26 98.25 C 81.81 95.79 83.36 92.39 86.41 90.43 Z"
     id="path18"
     fill="#00cc00" />
  <path
     fill="#00cc00"
     d=" M 121.96 82.69 C 126.78 85.18 129.46 90.16 133.97 93.04 C 136.75 95.00 139.03 97.54 141.39 99.97 C 138.54 102.80 135.97 105.87 133.66 109.16 C 129.61 105.18 125.81 100.92 121.41 97.32 C 122.30 92.49 121.96 87.57 121.96 82.69 Z"
     id="path20" />
  <path
     fill="#00cc00"
     d=" M 143.02 118.64 C 145.67 115.60 147.86 112.16 150.98 109.54 C 157.77 116.57 165.38 122.91 171.20 130.81 C 174.43 135.83 175.70 141.85 175.40 147.78 C 173.61 152.22 171.88 156.95 168.28 160.28 C 164.97 163.47 161.82 166.84 158.45 169.96 C 153.11 173.52 146.40 175.88 140.00 174.07 C 133.92 173.12 129.26 168.93 124.28 165.73 C 122.27 163.70 119.60 161.97 118.63 159.19 C 118.06 157.30 117.25 155.50 116.35 153.76 C 114.09 149.81 115.19 145.09 114.98 140.77 C 120.46 143.82 124.15 149.12 128.71 153.29 C 130.56 155.66 133.72 156.13 135.76 158.26 C 138.95 161.29 143.72 161.80 147.84 160.77 C 151.73 160.70 153.96 156.98 157.28 155.64 C 158.49 151.94 162.38 149.21 162.07 145.01 C 161.60 138.58 157.48 133.30 153.28 128.73 C 149.87 125.36 146.54 121.90 143.02 118.64 Z"
     id="path24" />
  <path
     fill="#00cc00"
     d=" M 76.95 120.73 C 79.37 117.39 82.08 114.27 84.52 110.94 C 89.57 116.59 95.50 121.31 101.11 126.37 C 103.30 131.44 101.49 137.11 101.85 142.43 C 98.14 140.14 95.43 136.66 92.17 133.82 C 87.00 129.56 82.36 124.70 76.95 120.73 Z"
     id="path26" />
  <path
     fill="#000000"
     d=" M 106.40 178.00 C 107.80 177.99 109.20 177.99 110.60 178.00 C 111.39 178.81 112.19 179.61 113.00 180.41 C 113.00 181.80 113.00 183.20 113.00 184.60 C 112.18 185.39 111.38 186.19 110.59 187.00 C 109.20 187.00 107.80 187.00 106.41 187.00 C 105.61 186.18 104.81 185.38 104.00 184.60 C 103.99 183.20 103.99 181.80 104.00 180.40 C 104.81 179.61 105.61 178.81 106.40 178.00 Z"
     id="path28" />
  <path
     fill="#f4f4f4"
     d=" M 107.39 179.05 C 109.91 178.28 112.73 181.09 111.94 183.61 C 110.77 184.98 109.42 186.68 107.39 185.94 C 106.36 184.84 104.54 183.92 104.97 182.14 C 104.97 180.72 106.59 180.04 107.39 179.05 Z"
     id="path30" />
</svg>
